<?xml version="1.0" encoding="utf-8"?>
<!-- Generator: Adobe Illustrator 20.1.0, SVG Export Plug-In . SVG Version: 6.00 Build 0)  -->
<svg version="1.1" id="Layer_1" xmlns="http://www.w3.org/2000/svg" xmlns:xlink="http://www.w3.org/1999/xlink" x="0px" y="0px"
	 viewBox="0 0 512 512" style="enable-background:new 0 0 512 512;" xml:space="preserve">
<style type="text/css">
	.st0{fill:#006233;}
	.st1{fill:#FFFFFF;stroke:#FFFFFF;stroke-width:0.4008;}
	.st2{fill:#FFFFFF;stroke:#FFFFFF;}
	.st3{fill:#FFFFFF;stroke:#FFFFFF;stroke-width:4.008;stroke-linecap:round;stroke-linejoin:round;}
	.st4{fill:#FFFFFF;}
	.st5{fill:#FFFFFF;stroke:#000000;stroke-width:2;}
	.st6{fill:none;stroke:#F7C608;stroke-width:8.1208;stroke-linecap:round;stroke-linejoin:round;}
	.st7{fill:#F7C608;}
</style>
<path class="st0" d="M473.7,423.7H38.3C17.2,423.7,0,406.6,0,385.4V126.6c0-21.2,17.2-38.3,38.3-38.3h435.3
	c21.2,0,38.3,17.2,38.3,38.3v258.8C512,406.6,494.8,423.7,473.7,423.7z"/>
<g id="g9244" transform="matrix(1.7598 0 0 1.6 -2175.2 -3398.1)">
	<path id="path3159" class="st1" d="M1356.5,2287.8c-3.9,5.9-1.1,9.7,2.9,10c2.7,0.2,8.2-3.8,8.2-8.4l-1.5-0.8
		c0.8,2.4,0,3.1-1.8,4.8C1360.7,2296.5,1353.5,2296.7,1356.5,2287.8z"/>
	<path id="path3115" class="st2" d="M1387.5,2303.2c22,0.6,29-20.7,15.4-39l-1.3,2c0.9,8.5,2.1,16.9,2.3,25.6
		c-2.7,3.1-6.5,2-7.3-1.5c0-4.7-1.5-8.7-3.4-12.5l-1.1,2c1.3,3.1,2.6,6.7,2.9,10.5c-6.3,7.5-13.2,9.1-10.6-0.8
		c-5,8.7,2.6,14.8,11.1,1.4c1.8,9.1,8.9,3.5,9.3,1.5c0.8-6,0.4-15.6-1.2-23.2c6.1,10.6,6.3,18.3,3.1,23.4
		C1403,2298.3,1395.1,2300.9,1387.5,2303.2L1387.5,2303.2z"/>
	<path id="path3117" class="st2" d="M1400,2279.1c-4.7,0.3-7.1-0.6-4.6-4.1c2.5-3.4,4.9-0.7,5.5,3.9c0.6,4.3-8.3,9.7-11.3,9.7
		c-4.6,0-6.8-6-2.5-11.3C1381.6,2292.9,1399,2283.8,1400,2279.1z M1396.7,2275.4c-0.6,0-1,1-0.7,1.2c0.8,0.6,2.1,0.2,2.3-0.1
		C1398.6,2275.9,1397.5,2275.5,1396.7,2275.4L1396.7,2275.4z"/>
	<path id="path3140" class="st2" d="M1374.4,2286.5c-4.5,8.9,0,12.6,5.8,11.6c3.4-0.6,7.7-3,10.2-6.3c0-7.2-0.1-14.4-0.7-21.4
		c2.3-2.7-0.2-2.7-1.1-5.6c-0.4,1.7-1.3,3.5-0.4,4.8c0.6,7.1,1,14.2,1,21.5c-4.6,3.7-8,5-10.4,5
		C1373.7,2296,1372.6,2291.8,1374.4,2286.5L1374.4,2286.5z"/>
	<path id="path3150" class="st2" d="M1383.7,2288.8c-0.1-6.7-0.2-14.4-0.8-19.1c2.4-2.6-0.1-2.7-0.9-5.6c-0.5,1.7-1.5,3.5-0.6,4.8
		c0.4,7.2,0.8,14.4,0.8,21.6C1382.8,2290.2,1383.4,2290.1,1383.7,2288.8L1383.7,2288.8z"/>
	<path id="path3152" class="st1" d="M1366.1,2288.5c-0.6-0.7-1-1.5-1.5-2.3c-0.1-1,0.6-2,0.7-2.5c0.8,1.2,1.2,2.1,1.8,2.7
		 M1368,2286.9c1.1,0.5,2.5,0.5,3.8,0.5c5,0.1,10.2-0.7,9.6,6c-0.5,6-5.4,9.4-9.8,9.4c-6.3-0.1-11.7-7-2-19.8
		c0.9-0.2,2.2,0.1,3.2,0.2c1.7,0.1,3.5,0,5.6-1.7c-0.2-4.2-0.2-8.2-0.8-12c-0.9-1.3,0.1-3.1,0.6-4.8c0.8,2.9,3.2,3,0.9,5.6
		c0.6,4.2,0.6,8.5,0.6,11.1c-1.2,1.8-2.1,3.7-5.5,4.4c-3.5-0.5-5.1-5.4-8.8-3.8c1-4.4,10.3-5.5,11.3-2c-0.6,3.7-9.3,2.2-11.6,14
		c-0.7,3.6,3.1,7,7.1,6.7c3.9-0.3,8-2.9,8.4-7.4c0.3-3.8-5-3.3-7.2-3.3c-3.2,0.1-5.3-0.4-6.5-1.1 M1370,2280.8
		c0.6-0.5,2.6-0.9,3.3,0c-0.5,0.4-1.1,0.8-1.5,1.2C1371.1,2281.6,1370.6,2281.2,1370,2280.8z"/>
	<path id="path3161" class="st2" d="M1374.9,2268.3c0.5,1.2,0.8,2,0.8,3.2c-0.3,1.6-1.7,3-3.1,3.1c-0.9,0-1.8-0.2-2.5-1.6
		c-0.1-0.2-0.4-0.6-0.8-0.4c-1.5,2.5-2.7,3.6-4,3.6c-2.7,0-1.9-2.5-4.5-3.3c-1.1,0-2.8,1-3.7,3.1c-3.4,9.6-6.5,0-5.2-4.5
		c0.2,4.3,1.2,6.8,2.3,6.7c0.8-0.1,1.5-1.9,2.4-3.7c0.8-1.4,2.6-4,4.5-4c1.8,0,0.6,3.3,4.2,3.2c1.7,0,3.2-1.3,4.8-3.9
		c0.3-0.1,0.4,0.6,0.5,0.8c0.2,0.9,1.8,3.3,3.9,1.1c-0.1-0.5-0.1-1.3-0.6-1.5L1374.9,2268.3z"/>
	<path id="path3163" class="st1" d="M1385.9,2260.3c-1.9,0.9-3.2,0.1-4-0.7c1.3-0.3,2.4-0.8,2.7-1.8c-0.6-1.4-2-1.9-4.1-2
		c-2.7,0.1-4.1,1.2-4.3,2.7c1.3,0,2.4-0.3,2.9,0.9c-2.2,1.1-4.8,1.5-7.7,1.5c-4.7,0.2-5.3-1.9-6.6-3.7c-0.1-0.1-0.5-0.3-0.7-0.3
		c-1.4,0-2.5,5-4.1,5c-1.6-0.2-1.3-3.2-1.7-5c-0.4,2.7,0.5,12.8,5.5,1.8c0.2-0.4,0.4-0.3,0.5,0c1.3,3.1,4.1,4.1,7,4.3
		c2.5,0.1,5.6-0.9,9-2.8c0.9,1,1.6,2.1,3.5,2.3c2.2,0.1,4.5-1.5,5.1-3.4c0.3-1,0.3-3-0.8-3c-1.5,0-2.6,3.6-2.2,6.8
		c0,0,0.2-0.8,0.2-0.8 M1379.5,2257.7c1-0.5,1.9-0.7,2.7,0.3c-0.6,0.2-1,0.3-1.3,0.6C1380.5,2258.3,1380,2258.2,1379.5,2257.7z
		 M1386.8,2260c0.2-1.1,0.4-1.9,1.3-2.5C1388.2,2258.6,1388.2,2259.3,1386.8,2260z"/>
	<path id="path3169" class="st1" d="M1392.7,2261.6c-0.3-0.9-0.6-1.7-0.7-2.7c-0.2-2,1.5-3.2,3.1-3c1.6,0.2,2.7,0.8,4.2,1.3
		c1.2,0.4,2.8,0.7,4.4,1.2c0.9,0.4,0,1.4-0.2,1.6c-3.9,1.5-6.7,3.9-9.1,4.1c-1.5,0.1-2.8-0.9-4-2.9c-0.1-3.8-0.2-8.3-0.6-11.2
		c0.6-0.6,0.7-1,1-1.5c0.3,3.7,0.4,7.7,0.5,11.6C1391.6,2260.8,1391.9,2261.4,1392.7,2261.6L1392.7,2261.6z M1395.1,2261.9
		c-2.1,0.6-1.8-1.2-2-2.3c-0.2-1.3-0.1-2.7,1.5-2.3c2.1,0.6,4,1.3,5.9,2.1L1395.1,2261.9z"/>
	<path id="path3173" class="st1" d="M1393.1,2263.8l0.3,1.4h0.2l-0.1-1.3"/>
	<path id="path5196" class="st3" d="M1359.9,2278.5l1.1-1.1l1.2,1l-1.1,1L1359.9,2278.5z"/>
	<path id="path6168" class="st3" d="M1362.5,2278.2l1.1-1.1l1.2,1l-1.1,1L1362.5,2278.2z"/>
	<path id="path6170" class="st3" d="M1355.1,2266.9l1.1-1.1l1.2,1l-1.1,1L1355.1,2266.9z"/>
	<path id="path6172" class="st3" d="M1355.6,2270.1l1.1-1.1l1.2,1l-1.1,1L1355.6,2270.1z"/>
	<path id="path6174" class="st3" d="M1375,2275.4l1-0.8l0.9,1l-1,0.7L1375,2275.4z"/>
	<path id="path6176" class="st3" d="M1362,2254.9l0.7-0.7l0.8,0.7l-0.7,0.7L1362,2254.9z"/>
	<path id="path6178" class="st3" d="M1363.8,2254.7l0.7-0.7l0.8,0.7l-0.7,0.7L1363.8,2254.7z"/>
	<path id="path6180" class="st3" d="M1400.9,2262.8l-0.7,0.6l-0.6-0.7l0.7-0.5L1400.9,2262.8z"/>
	<path id="path9240" class="st1" d="M1369.6,2282.9l-0.1,1.2l1.9,0.2l1.5-1.1L1369.6,2282.9L1369.6,2282.9z"/>
	<path id="path9242" class="st2" d="M1385.7,2260.6l0.6-0.1l-0.1,1.6l-0.3,0.1L1385.7,2260.6L1385.7,2260.6z"/>
</g>
<path id="path2722" class="st4" d="M256,319.1c37.7,0,68.4-27.9,68.4-62.3c0-18.9-9.3-35.7-23.8-47.1c8.7,9.4,14.1,21.7,14.1,35.1
	c0,29.8-26.2,54-58.7,54c-32.4,0-58.7-24.2-58.7-54c0-13.4,5.3-25.8,14.1-35.1c-14.6,11.4-23.8,28.2-23.8,47.1
	C187.6,291.2,218.3,319.1,256,319.1L256,319.1z"/>
<g id="g2908" transform="matrix(1.1355 0 0 1.0324 2.7256 -21.429)">
	<path id="path2910" class="st5" d="M214.9,363.4c-13.3,6.7-29.9,4.8-44-4.2c-0.6-0.3-0.9,0.2-0.3,1.8c1.5,4.4,2.7,7.9-1.8,14.4
		c-2,2.9,0.3,3.3,3.6,3c16.9-1.7,33.5-5.4,41.5-8.6L214.9,363.4z"/>
	<path id="path2912" class="st5" d="M214.6,371.3c-5.3,2.1-14.3,4.7-24.5,6.5c-4.1,0.6-3.9,3.2,3.3,4.1c7.4,0.8,16.9-4.5,22.7-9.2
		L214.6,371.3z"/>
	<path id="path2914" class="st5" d="M223.1,356.7c1.8,0,5.1-0.8,8.5-1.2c6.2-1.1,1.7,8.5-8.5,8.5v3.2c10.3,0,21-11.2,18.7-16.2
		c-3.2-7.3-11.9-1.1-18.7-1.1s-15.6-6.2-18.7,1.1c-2.3,5,8.5,16.2,18.7,16.2V364c-10.1,0-14.7-9.5-8.5-8.5
		C217.9,356,221.2,356.7,223.1,356.7z"/>
	<path id="path2916" class="st5" d="M231.2,363.4c13.3,6.7,29.9,4.8,44-4.2c0.6-0.3,0.9,0.2,0.3,1.8c-1.5,4.4-2.7,7.9,1.8,14.4
		c2,2.9-0.3,3.3-3.6,3c-16.9-1.7-33.5-5.4-41.5-8.6L231.2,363.4z"/>
	<path id="path2918" class="st5" d="M231.5,371.3c5.3,2.1,14.2,4.7,24.5,6.5c4.1,0.6,3.9,3.2-3.3,4.1c-7.4,0.8-16.9-4.5-22.7-9.2
		L231.5,371.3z"/>
	<path id="path2920" class="st5" d="M223.5,369.7c0.3,2.6,0.8,8.2,4.2,5.7c4.7-3.2,5.7-5.6,5.7-10.1c0-2.9-3.5-7.1-10.4-7.1
		s-10.4,4.2-10.4,7.1c0,4.5,1.1,7,5.7,10.1c3.5,2.4,3.8-3.2,4.2-5.7C222.7,368.8,223.5,369.1,223.5,369.7z"/>
</g>
<g id="g2724" transform="matrix(1.1355 0 0 1.0324 2.7256 -21.429)">
	<path id="path2726" class="st5" d="M218.7,176.1c-2-11.2-18.4-11.9-21-13.8c-3-2-2.6,0-1.5,3c3,7.9,13.3,11,18,11.9
		C217.9,177.9,219.1,178.2,218.7,176.1z"/>
	<path id="path2728" class="st5" d="M223.7,176.4c1.7-11.5-14.7-16.9-16.6-19.5c-2.3-2.7-2.6-1.1-1.5,2.1c2,6.8,9.1,14.8,13.3,16.9
		C222.3,177.8,223.4,178.5,223.7,176.4z"/>
	<path id="path2730" class="st5" d="M237.1,183.1c1.5-13.8-11.8-15.9-15.3-20.3c-2.3-2.7-2.4-1.2-1.7,2c1.5,7,8.2,15.1,12.2,17.7
		C235.6,184.4,236.9,185.2,237.1,183.1z"/>
	<path id="path2732" class="st5" d="M233,180c-13.7-8.9-23.4-3.9-27.3-4.4c-3.8-0.5-5,2,1.5,5.6c8,4.4,19.2,3.8,23.6,2.1
		C235.3,181.5,233.9,180.6,233,180z"/>
	<path id="path2734" class="st5" d="M253.7,186.1c-4.2-14.8-14-12.4-16.9-14.2c-2.9-1.8-3.2-1.4-2.6,2c1.2,5.9,11.3,12.4,16.3,14.4
		C252.4,188.8,254.6,189.7,253.7,186.1z"/>
	<path id="path2736" class="st5" d="M251.8,188.6c-11.8-9.5-21-2.4-24.6-3.5c-2.7-0.8-1.5,1.1-0.5,1.8c7.6,5.3,16.9,8.2,24.2,4.8
		C253.7,190.6,253.9,190.3,251.8,188.6z"/>
	<path id="path2738" class="st5" d="M277.3,198.3c0.2-9.4-19.2-13.3-23.3-19c-2.4-3.5-4.5-1.7-3.3,3.9c1.8,7.3,15.1,15.3,22.4,16.8
		C277.4,200.9,277.3,199.4,277.3,198.3z"/>
	<path id="path2740" class="st5" d="M276.7,200c-12.2-11-22.5-7.4-26.3-8.5c-3.8-0.9-5.3,1.4,0.6,5.9c7.3,5.4,18.4,6.5,23.1,5.4
		S277.6,200.7,276.7,200z"/>
	<path id="path2742" class="st5" d="M298.6,216.2c-3.5-16-14.5-19.3-17.2-22.4c-2.6-3-5.3-2.1-3,5.1c2.7,8.6,11.6,16.2,16.3,18
		C299.2,218.9,298.9,217.4,298.6,216.2z"/>
	<path id="path2744" class="st5" d="M298.4,218.3c-8.9-14.4-20.5-13.9-24.2-15.9c-3.5-2.1-5.9-0.3-1.2,5.9
		c5.4,7.6,16.6,11.8,21.8,12.1C299.9,220.7,299,219.3,298.4,218.3z"/>
	<path id="path2746" class="st5" d="M309.9,235.4c5.1-16.3-6.6-22.4-7.9-25.1c-1.4-2.7-2.7-2.7-3.5,0.2c-3.3,11.6,7.4,23,9.1,25.2
		C309.3,237.8,309.6,236.7,309.9,235.4z"/>
	<path id="path2748" class="st5" d="M307.5,239.9c-4.1-18.3-14.8-17.2-17.2-19.8c-2.6-2.6-2.9-0.8-2.4,2.6c1.2,8.9,11.9,15,16.8,18
		C306.1,241.6,307.9,242.6,307.5,239.9z"/>
	<path id="path2750" class="st5" d="M317.8,261.4c7.4-17.2-1.4-28.9-4.1-31.4c-2.7-2.4-4.4-3.5-3.5,0c1.2,5.3-3,18.9,3.5,28.9
		C315.8,262.1,316.1,265.3,317.8,261.4z"/>
	<path id="path2752" class="st5" d="M313.8,264.8c1.7-10.6-4.4-20.3-10.9-24c-3.8-2.3-3.9-1.7-3.9,1.5c0.3,9.8,9.5,18,12.2,22.5
		C313.8,269.1,313.7,265.9,313.8,264.8z"/>
	<path id="path2754" class="st5" d="M312.2,292.3c-5.4-20,5.9-31.4,9.4-33.7c3.3-2.4,5.4-3.3,3.9,0.5c-2.3,5.6,0.2,21.2-8.5,31
		C314.3,293.4,313.2,296.9,312.2,292.3z"/>
	<path id="path2756" class="st5" d="M313.4,288c4.5-17.4-5.3-27.2-8.3-29.2c-2.9-2-4.7-2.7-3.3,0.5c1.8,4.8-0.2,18.4,7.4,26.9
		C311.6,289,312.5,291.9,313.4,288z"/>
	<path id="path2758" class="st5" d="M307.8,279.8c-8.2,8.8-8.3,21.6-4.7,29.2c2.3,4.4,2.6,4.1,4.7,0.9c5.7-9.2,2.3-22.5,2.6-28.4
		C310.5,275.9,308.7,278.9,307.8,279.8z"/>
	<path id="path2760" class="st5" d="M321.2,293.7c0,12.1-7.4,21.9-15.3,24.9c-4.5,1.7-4.5,1.2-3.9-2.4c2.1-13.6,12.5-18.6,16.3-23
		C322,289,321.2,292.5,321.2,293.7z"/>
	<path id="path2762" class="st5" d="M293.1,329.7c13.3-12.1,6.2-20.6,6.8-28.4c0.3-4.2-1.4-3.2-2.9-1.7c-8.5,8.3-8.9,23.1-7.1,28.9
		C290.7,331,291.9,330.7,293.1,329.7z"/>
	<path id="path2764" class="st5" d="M311,321.8c-4.4,13.3-16,21.5-25.8,21.9c-5.7,0.3-5.6-0.2-3.6-4.1c7.4-14.2,20.5-15.9,26.4-19.5
		C313.4,316.8,311.4,320.5,311,321.8z"/>
	<path id="path2766" class="st5" d="M274.9,346.8c17.2-8.6,13.7-23,16.9-26.6c2.3-2.6-0.5-2.3-1.8-1.4
		c-10.1,5.9-18.3,15.3-18.4,25.2C271.5,347.8,271.8,348.3,274.9,346.8z"/>
	<path id="path2768" class="st5" d="M251.3,362.8c21.8,3.5,31.9-13,38.2-14.5c3.3-0.8,0.9-2.1-0.8-2.3c-14.5-1.7-32.9,5.1-38.5,12.7
		C248,361.7,248,362.3,251.3,362.8z"/>
	<path id="path2770" class="st5" d="M273.3,336.9c-4.4,14.4-20.7,26.2-32.9,27.1c-5.7,0.5-5.7-0.2-3.6-3.9
		c9.8-17.8,26.9-20.9,32.9-25.4C274.9,330.7,273.8,335.6,273.3,336.9z"/>
	<path id="path2772" class="st5" d="M227.4,176.1c2-11.2,18.4-11.9,21-13.8c3-2,2.6,0,1.5,3c-3,7.9-13.3,11-18,11.9
		C228.2,177.9,227,178.2,227.4,176.1z"/>
	<path id="path2774" class="st5" d="M222.4,176.4c-1.7-11.5,14.7-16.9,16.6-19.5c2.3-2.7,2.6-1.1,1.5,2.1c-2,6.8-9.1,14.8-13.3,16.9
		C223.8,177.8,222.7,178.5,222.4,176.4z"/>
	<path id="path2776" class="st5" d="M209,183.1c-1.5-13.8,11.8-15.9,15.3-20.3c2.3-2.7,2.4-1.2,1.7,2c-1.5,7-8.2,15.1-12.2,17.7
		C210.5,184.4,209.2,185.2,209,183.1z"/>
	<path id="path2778" class="st5" d="M213.1,180c13.7-8.9,23.4-3.9,27.3-4.4c3.8-0.5,5,2-1.5,5.6c-8,4.4-19.2,3.8-23.6,2.1
		C210.8,181.5,212.2,180.6,213.1,180z"/>
	<path id="path2780" class="st5" d="M192.4,186.1c4.2-14.8,14-12.4,16.9-14.2c2.9-1.8,3.2-1.4,2.6,2c-1.2,5.9-11.3,12.4-16.3,14.4
		C193.7,188.8,191.5,189.7,192.4,186.1z"/>
	<path id="path2782" class="st5" d="M194.4,188.6c11.8-9.5,21-2.4,24.6-3.5c2.7-0.8,1.5,1.1,0.5,1.8c-7.6,5.3-16.9,8.2-24.2,4.8
		C192.4,190.6,192.2,190.3,194.4,188.6z"/>
	<path id="path2784" class="st5" d="M168.8,198.3c-0.2-9.4,19.2-13.3,23.3-19c2.4-3.5,4.5-1.7,3.3,3.9c-1.8,7.3-15.1,15.3-22.4,16.8
		C168.7,200.9,168.8,199.4,168.8,198.3z"/>
	<path id="path2786" class="st5" d="M169.4,200c12.2-11,22.5-7.4,26.3-8.5c3.8-0.9,5.3,1.4-0.6,5.9c-7.3,5.4-18.4,6.5-23.1,5.4
		C167.3,201.8,168.5,200.7,169.4,200z"/>
	<path id="path2788" class="st5" d="M147.5,216.2c3.5-16,14.5-19.3,17.2-22.4c2.6-3,5.3-2.1,3,5.1c-2.7,8.6-11.6,16.2-16.3,18
		C146.9,218.9,147.2,217.4,147.5,216.2z"/>
	<path id="path2790" class="st5" d="M147.7,218.3c8.9-14.4,20.5-13.9,24.2-15.9c3.5-2.1,5.9-0.3,1.2,5.9
		c-5.4,7.6-16.6,11.8-21.8,12.1C146.2,220.7,147.1,219.3,147.7,218.3z"/>
	<path id="path2792" class="st5" d="M136.2,235.4c-5.1-16.3,6.6-22.4,7.9-25.1c1.4-2.7,2.7-2.7,3.5,0.2c3.3,11.6-7.4,23-9.1,25.2
		C136.8,237.8,136.5,236.7,136.2,235.4z"/>
	<path id="path2794" class="st5" d="M138.6,239.9c4.1-18.3,14.8-17.2,17.2-19.8c2.6-2.6,2.9-0.8,2.4,2.6c-1.2,8.9-11.9,15-16.8,18
		C140,241.6,138.2,242.6,138.6,239.9z"/>
	<path id="path2796" class="st5" d="M128.3,261.4c-7.4-17.2,1.4-28.9,4.1-31.4c2.7-2.4,4.4-3.5,3.5,0c-1.2,5.3,3,18.9-3.5,28.9
		C130.3,262.1,130,265.3,128.3,261.4z"/>
	<path id="path2798" class="st5" d="M132.3,264.8c-1.7-10.6,4.4-20.3,10.9-24c3.8-2.3,3.9-1.7,3.9,1.5c-0.3,9.8-9.5,18-12.2,22.5
		C132.3,269.1,132.4,265.9,132.3,264.8z"/>
	<path id="path2800" class="st5" d="M133.9,292.3c5.4-20-5.9-31.4-9.4-33.7c-3.3-2.4-5.4-3.3-3.9,0.5c2.3,5.6-0.2,21.2,8.5,31
		C131.8,293.4,132.7,296.9,133.9,292.3z"/>
	<path id="path2802" class="st5" d="M132.7,288c-4.5-17.4,5.3-27.2,8.3-29.2c2.9-2,4.7-2.7,3.3,0.5c-1.8,4.8,0.2,18.4-7.4,26.9
		C134.5,289,133.6,291.9,132.7,288z"/>
	<path id="path2804" class="st5" d="M138.3,279.8c8.2,8.8,8.3,21.6,4.7,29.2c-2.3,4.4-2.6,4.1-4.7,0.9c-5.7-9.2-2.3-22.5-2.6-28.4
		C135.6,275.9,137.4,278.9,138.3,279.8z"/>
	<path id="path2806" class="st5" d="M124.9,293.7c0,12.1,7.4,21.9,15.3,24.9c4.5,1.7,4.5,1.2,3.9-2.4c-2.1-13.6-12.5-18.6-16.3-23
		C124.1,289,124.9,292.5,124.9,293.7z"/>
	<path id="path2808" class="st5" d="M153,329.7c-13.3-12.1-6.2-20.6-6.8-28.4c-0.3-4.2,1.4-3.2,2.9-1.7c8.5,8.3,8.9,23.1,7.1,28.9
		C155.4,331,154.2,330.7,153,329.7z"/>
	<path id="path2810" class="st5" d="M135.1,321.8c4.4,13.3,16,21.5,25.8,21.9c5.7,0.3,5.6-0.2,3.6-4.1
		c-7.4-14.2-20.5-15.9-26.4-19.5C132.7,316.8,134.7,320.5,135.1,321.8z"/>
	<path id="path2812" class="st5" d="M171.2,346.8c-17.2-8.6-13.7-23-16.9-26.6c-2.3-2.6,0.5-2.3,1.8-1.4
		c10.1,5.9,18.3,15.3,18.4,25.2C174.6,347.8,174.3,348.3,171.2,346.8z"/>
	<path id="path2814" class="st5" d="M194.8,362.8c-21.8,3.5-31.9-13-38.2-14.5c-3.3-0.8-0.9-2.1,0.8-2.3
		c14.5-1.7,32.9,5.1,38.5,12.7C198.1,361.7,198.1,362.3,194.8,362.8z"/>
	<path id="path2816" class="st5" d="M172.8,336.9c4.4,14.4,20.7,26.2,32.9,27.1c5.7,0.5,5.7-0.2,3.6-3.9
		c-9.8-17.8-26.9-20.9-32.9-25.4C171.2,330.7,172.3,335.6,172.8,336.9z"/>
</g>
<g id="g2818" transform="matrix(1.1355 0 0 1.0324 2.7256 -21.429)">
	<path id="path2820" class="st0" d="M248.6,190c-2.9-2.1-13.4-0.9-15.4-2.3C236.9,190.9,245.4,188.6,248.6,190z"/>
	<path id="path2822" class="st0" d="M274.1,195.5c-2.3-4.1-15.7-6.8-17.7-10.4C259.9,192,270.3,191.1,274.1,195.5z"/>
	<path id="path2824" class="st0" d="M272.1,200.1c-5-4.8-16.6-2.9-20.1-5.7C260.2,201.8,264.7,196.1,272.1,200.1z"/>
	<path id="path2826" class="st0" d="M243,178.7c3.2,1.7,7.1,3.3,9.1,7.3c-2.3-3-6.3-4.2-9.7-6.8C242.5,179.1,242.8,178.8,243,178.7z
		"/>
	<path id="path2828" class="st0" d="M292.5,209.8c-2-4.5-8.9-9.5-9.5-11.2C285,204.5,290.7,205.9,292.5,209.8z"/>
	<path id="path2830" class="st0" d="M294.3,217.8c-6-9.5-15.6-8.5-19.3-12.1C277.9,209.2,288.8,211.5,294.3,217.8z"/>
	<path id="path2832" class="st0" d="M308.4,232.5c0.5-10.1-7.1-13.9-7.4-19.7C300.8,219.6,308.7,228.9,308.4,232.5z"/>
	<path id="path2834" class="st0" d="M304.6,237.9c-1.5-8.8-11.8-9.4-13.6-14.5C291,228.3,303.1,233.2,304.6,237.9z"/>
	<path id="path2836" class="st0" d="M313.1,232.9c5.4,6.7,1.7,16.8,3.9,24.2C314.3,251.7,315.6,238.1,313.1,232.9z"/>
	<path id="path2838" class="st0" d="M304.2,261.4c8.2,8.8,4.8,18.6,8.2,22.8C308.2,278.3,308.8,266.8,304.2,261.4z"/>
	<path id="path2840" class="st0" d="M321.1,262.6c-6.9,7.7-2.7,19.3-6.3,24.8C318.8,282.7,318.2,268.3,321.1,262.6z"/>
	<path id="path2842" class="st0" d="M312.3,262.6c-0.9-8.9-9.2-13.6-10-18.4C301.4,249,310.4,256.5,312.3,262.6z"/>
	<path id="path2844" class="st0" d="M308.1,283.9c1.4,6.2-3.6,19.5-2.1,23.6C302.7,300.4,308.8,286.9,308.1,283.9z"/>
	<path id="path2846" class="st0" d="M318.8,298.1c-3.3,11-10,10.3-12.1,16.9C308.2,308.7,317,302.9,318.8,298.1z"/>
	<path id="path2848" class="st0" d="M297.2,303.2c-4.4,7.4-0.8,15.9-4.4,21.2C298,319.1,295.3,309.3,297.2,303.2z"/>
	<path id="path2850" class="st0" d="M307.8,323.5c-5.3,9.8-16.2,8.9-20.5,16C291.6,330.6,305.1,329.1,307.8,323.5z"/>
	<path id="path2852" class="st0" d="M288.6,322.3c-9.4,6.5-6.5,13.3-13.6,20.6C283.9,335.6,283.2,327.6,288.6,322.3z"/>
	<path id="path2854" class="st0" d="M284.2,348.6c-9.1-0.3-22.1,11.5-29.9,10.6C262.2,360.8,276.7,350.2,284.2,348.6z"/>
	<path id="path2856" class="st0" d="M269.6,338c-0.6,9.2-24.2,15.1-26.7,21.3C245.7,351.2,266.4,345.1,269.6,338z"/>
	<path id="path2858" class="st0" d="M216.3,167.9c-3-2.6-6.6-4.7-7.7-7.3c0.8,3.3,3.8,5.7,6.8,8C215.6,168.5,216,168.1,216.3,167.9z
		"/>
	<path id="path2860" class="st0" d="M211.1,170.7c-4.7-2.3-10.1-2.1-12.5-5.3c1.5,3.2,6.6,4.4,11,6
		C210.1,171.1,210.7,170.8,211.1,170.7z"/>
	<path id="path2862" class="st0" d="M197.5,190c2.9-2.1,13.4-0.9,15.4-2.3C209.2,190.9,200.7,188.6,197.5,190z"/>
	<path id="path2864" class="st0" d="M172,195.5c2.3-4.1,15.7-6.8,17.7-10.4C186.2,192,175.8,191.1,172,195.5z"/>
	<path id="path2866" class="st0" d="M174,200.1c5-4.8,16.6-2.9,20.1-5.7C185.9,201.8,181.4,196.1,174,200.1z"/>
	<path id="path2868" class="st0" d="M194,185.9c2.9-6,11-6.8,13.1-10.4C204,180.9,197.1,181.8,194,185.9z"/>
	<path id="path2870" class="st0" d="M217.3,180.6c8.3-3.9,16.5-0.6,20.4-2.4C232.9,180.8,221.4,179.6,217.3,180.6z"/>
	<path id="path2872" class="st0" d="M153.6,209.8c2-4.5,8.9-9.5,9.5-11.2C161.1,204.5,155.4,205.9,153.6,209.8z"/>
	<path id="path2874" class="st0" d="M151.8,217.8c6-9.5,15.6-8.5,19.3-12.1C168.2,209.2,157.3,211.5,151.8,217.8z"/>
	<path id="path2876" class="st0" d="M137.7,232.5c-0.5-10.1,7.1-13.9,7.4-19.7C145.3,219.6,137.4,228.9,137.7,232.5z"/>
	<path id="path2878" class="st0" d="M141.5,237.9c1.5-8.8,11.8-9.4,13.6-14.5C155.1,228.3,143,233.2,141.5,237.9z"/>
	<path id="path2880" class="st0" d="M133,232.9c-5.4,6.7-1.7,16.8-3.9,24.2C131.8,251.7,130.5,238.1,133,232.9z"/>
	<path id="path2882" class="st0" d="M141.9,261.4c-8.2,8.8-4.8,18.6-8.2,22.8C137.9,278.3,137.3,266.8,141.9,261.4z"/>
	<path id="path2884" class="st0" d="M125,262.6c6.9,7.7,2.7,19.3,6.3,24.8C127.3,282.7,127.9,268.3,125,262.6z"/>
	<path id="path2886" class="st0" d="M133.8,262.6c0.9-8.9,9.2-13.6,10-18.4C144.7,249,135.7,256.5,133.8,262.6z"/>
	<path id="path2888" class="st0" d="M138,283.9c-1.4,6.2,3.6,19.5,2.1,23.6C143.4,300.4,137.3,286.9,138,283.9z"/>
	<path id="path2890" class="st0" d="M127.3,298.1c3.3,11,10,10.3,12.1,16.9C137.9,308.7,129.1,302.9,127.3,298.1z"/>
	<path id="path2892" class="st0" d="M148.9,303.2c4.4,7.4,0.8,15.9,4.4,21.2C148.1,319.1,150.9,309.3,148.9,303.2z"/>
	<path id="path2894" class="st0" d="M138.3,323.5c5.3,9.8,16.2,8.9,20.5,16C154.5,330.6,141,329.1,138.3,323.5z"/>
	<path id="path2896" class="st0" d="M157.5,322.3c9.4,6.5,6.5,13.3,13.6,20.6C162.2,335.6,162.9,327.6,157.5,322.3z"/>
	<path id="path2898" class="st0" d="M161.9,348.6c9.1-0.3,22.1,11.5,29.9,10.6C183.9,360.8,169.4,350.2,161.9,348.6z"/>
	<path id="path2900" class="st0" d="M176.5,338c0.6,9.2,24.2,15.1,26.7,21.3C200.4,351.2,179.7,345.1,176.5,338z"/>
	<path id="path2902" class="st0" d="M210.8,180.9c1.8-8.2,10.9-9.7,12.1-14.5C222.4,171.6,211.7,177.3,210.8,180.9z"/>
	<path id="path2904" class="st0" d="M237.6,160.7c-1.4,6.2-11.2,9.7-12.5,14.4C225.5,168.7,235.6,165.1,237.6,160.7z"/>
	<path id="path2906" class="st0" d="M229.8,175.3c4.7-7.6,14.3-5.6,17.7-10C245.1,170.5,233.2,170.7,229.8,175.3z"/>
</g>
<path id="path12826" class="st6" d="M336.3,256c0,40.5-36.1,73.4-80.6,73.4S175,296.6,175,256s36.1-73.4,80.6-73.4
	S336.3,215.5,336.3,256z"/>
<g id="g12874" transform="matrix(1.089 .29066 -.31969 .99014 322.08 9.1715)">
	<path id="path12861" class="st7" d="M17.9,318.2l0,0.9c0,0.6-0.5,1.1-1.1,1.2c-1.5,0-3.5,0.2-5.3,0.2l0-5.7c2,0,3.9-0.2,5.3-0.3
		c0.6,0,1.1,0.5,1.1,1.1l0,0.8 M5.2,316.4l0-0.9c0-0.6,0.5-1.1,1.1-1.1c1.5,0.2,3.3,0.3,5.3,0.3l0,5.7c-1.8,0-3.6,0-5.3-0.2
		c-0.6-0.2-1.1-1.2-1.1-1.8"/>
	<path id="path12865" class="st0" d="M16.8,318.1l0,0.6c0,0.4-0.4,0.8-0.9,0.9c-1.3,0-2.9,0.1-4.4,0.1l0-4.1c1.6,0,3.3-0.1,4.4-0.2
		c0.5,0,0.9,0.3,0.9,0.8l0,0.5 M6.3,316.8l0-0.6c0-0.4,0.4-0.8,0.9-0.8c1.3,0.1,2.8,0.2,4.4,0.2l0,4.1c-1.5,0-3,0-4.4-0.1
		c-0.5-0.1-0.9-0.9-0.9-1.3"/>
</g>
<g id="g12878" transform="matrix(.95488 .55779 -.61350 .86818 618.66 131.41)">
	<path id="path12880" class="st7" d="M-197.1,346.6l0,0.9c0,0.6-0.5,1.1-1.1,1.2c-1.5,0-3.5,0.1-5.3,0.1l0-5.7c2,0,3.9-0.1,5.3-0.3
		c0.6,0,1.1,0.5,1.1,1.1l0,0.8 M-209.8,344.8l0-0.9c0-0.6,0.5-1.1,1.1-1.1c1.5,0.2,3.3,0.3,5.3,0.3l0,5.7c-1.8,0-3.6,0-5.3-0.2
		c-0.6-0.2-1.1-1.2-1.1-1.8"/>
	<path id="path12882" class="st0" d="M-198.2,346.4l0,0.6c0,0.4-0.4,0.8-0.9,0.9c-1.3,0-2.9,0.1-4.4,0.1l0-4.1
		c1.6,0,3.3-0.1,4.4-0.2c0.5,0,0.9,0.3,0.9,0.8l0,0.5 M-208.8,345.1l0-0.6c0-0.4,0.4-0.8,0.9-0.8c1.3,0.1,2.8,0.2,4.4,0.2l0,4.1
		c-1.5,0-3,0-4.4-0.1c-0.5-0.1-0.9-0.9-0.9-1.3"/>
</g>
<g id="g12884" transform="matrix(.74342 .77974 -.85762 .67591 865.37 324.65)">
	<path id="path12886" class="st7" d="M-395.5,434.4l0,0.9c0,0.6-0.5,1.1-1.1,1.2c-1.5,0-3.5,0.1-5.3,0.1l0-5.7c2,0,3.9-0.1,5.3-0.3
		c0.6,0,1.1,0.5,1.1,1.1l0,0.8 M-408.2,432.6l0-0.9c0-0.6,0.5-1.1,1.1-1.1c1.5,0.2,3.3,0.3,5.3,0.3l0,5.7c-1.8,0-3.6,0-5.3-0.2
		c-0.6-0.2-1.1-1.2-1.1-1.8"/>
	<path id="path12888" class="st0" d="M-396.6,434.2l0,0.6c0,0.4-0.4,0.8-0.9,0.9c-1.3,0-2.9,0.1-4.4,0.1l0-4.1
		c1.6,0,3.3-0.1,4.4-0.2c0.5,0,0.9,0.3,0.9,0.8l0,0.5 M-407.1,432.9l0-0.6c0-0.4,0.4-0.8,0.9-0.8c1.3,0.1,2.8,0.2,4.4,0.2l0,4.1
		c-1.5,0-3,0-4.4-0.1c-0.5-0.1-0.9-0.9-0.9-1.3"/>
</g>
<g id="g12890" transform="matrix(.47175 .93856 -1.0323 .42891 1042.2 573.25)">
	<path id="path12892" class="st7" d="M-561.1,574.5l0,0.9c0,0.6-0.5,1.1-1.1,1.2c-1.5,0-3.5,0.2-5.3,0.1l0-5.7c2,0,3.9-0.1,5.3-0.3
		c0.6,0,1.1,0.5,1.1,1.1l0,0.8 M-573.8,572.7l0-0.9c0-0.6,0.5-1.1,1.1-1.1c1.5,0.2,3.3,0.3,5.3,0.3l0,5.7c-1.8,0-3.6,0-5.3-0.2
		c-0.6-0.2-1.1-1.2-1.1-1.8"/>
	<path id="path12894" class="st0" d="M-562.2,574.3l0,0.6c0,0.4-0.4,0.8-0.9,0.9c-1.3,0-2.9,0.1-4.4,0.1l0-4.1
		c1.6,0,3.3-0.1,4.4-0.2c0.5,0,0.9,0.3,0.9,0.8l0,0.5 M-572.7,573l0-0.6c0-0.4,0.4-0.8,0.9-0.8c1.3,0.1,2.8,0.2,4.4,0.2l0,4.1
		c-1.5,0-3,0-4.4-0.1c-0.5-0.1-0.9-0.9-0.9-1.3"/>
</g>
<g id="g12896" transform="matrix(.16188 1.0214 -1.1234 .14718 1134.9 857.07)">
	<path id="path12898" class="st7" d="M-680.5,755.6l0,0.9c0,0.6-0.5,1.1-1.1,1.2c-1.5,0-3.5,0.2-5.3,0.2l0-5.7c2,0,3.9-0.2,5.3-0.3
		c0.6,0,1.1,0.5,1.1,1.1l0,0.8 M-693.2,753.8l0-0.9c0-0.6,0.5-1.1,1.1-1.1c1.5,0.2,3.3,0.3,5.3,0.3l0,5.7c-1.8,0-3.6,0-5.3-0.2
		c-0.6-0.2-1.1-1.2-1.1-1.8"/>
	<path id="path12900" class="st0" d="M-681.6,755.4l0,0.6c0,0.4-0.4,0.8-0.9,0.9c-1.3,0-2.9,0.1-4.4,0.1l0-4.1
		c1.6,0,3.3-0.1,4.4-0.2c0.5,0,0.9,0.3,0.9,0.8l0,0.5 M-692.1,754.1l0-0.6c0-0.4,0.4-0.8,0.9-0.8c1.3,0.1,2.8,0.2,4.4,0.2l0,4.1
		c-1.5,0-3,0-4.4-0.1c-0.5-0.1-0.9-0.9-0.9-1.3"/>
</g>
<g id="g12902" transform="matrix(-.16110 1.0215 -1.1235 -.14647 1135.9 1153.1)">
	<path id="path12904" class="st7" d="M-744.1,963l0,0.9c0,0.6-0.5,1.1-1.1,1.2c-1.5,0-3.5,0.2-5.3,0.2l0-5.7c2,0,3.9-0.2,5.3-0.3
		c0.6,0,1.1,0.5,1.1,1.1l0,0.8 M-756.8,961.2l0-0.9c0-0.6,0.5-1.1,1.1-1.1c1.5,0.2,3.3,0.3,5.3,0.3l0,5.7c-1.8,0-3.6,0-5.3-0.2
		c-0.6-0.2-1.1-1.2-1.1-1.8"/>
	<path id="path12906" class="st0" d="M-745.1,962.8l0,0.6c0,0.4-0.4,0.8-0.9,0.9c-1.3,0-2.9,0.1-4.4,0.1l0-4.1
		c1.6,0,3.3-0.1,4.4-0.2c0.5,0,0.9,0.3,0.9,0.8l0,0.5 M-755.7,961.5l0-0.6c0-0.4,0.4-0.8,0.9-0.8c1.3,0.1,2.8,0.2,4.4,0.2l0,4.1
		c-1.5,0-3,0-4.4-0.1c-0.5-0.1-0.9-0.9-0.9-1.3"/>
</g>
<g id="g12908" transform="matrix(-.47103 .93886 -1.0326 -.42826 1045.1 1437.5)">
	<path id="path12910" class="st7" d="M-746.7,1179.9l0,0.9c0,0.6-0.5,1.1-1.1,1.2c-1.5,0-3.5,0.2-5.3,0.2l0-5.7c2,0,3.9-0.2,5.3-0.3
		c0.6,0,1.1,0.5,1.1,1.1l0,0.8 M-759.4,1178.1l0-0.9c0-0.6,0.5-1.1,1.1-1.1c1.5,0.2,3.3,0.3,5.3,0.3l0,5.7c-1.8,0-3.6,0-5.3-0.1
		c-0.6-0.2-1.1-1.2-1.1-1.8"/>
	<path id="path12912" class="st0" d="M-747.8,1179.7l0,0.6c0,0.4-0.4,0.8-0.9,0.9c-1.3,0-2.9,0.1-4.4,0.1l0-4.1
		c1.6,0,3.3-0.1,4.4-0.2c0.5,0,0.9,0.3,0.9,0.8l0,0.5 M-758.4,1178.4l0-0.6c0-0.4,0.4-0.8,0.9-0.8c1.3,0.1,2.8,0.2,4.4,0.2l0,4.1
		c-1.5,0-3,0-4.4-0.1c-0.5-0.1-0.9-0.9-0.9-1.3"/>
</g>
<g id="g12914" transform="matrix(-.74282 .78021 -.85814 -.67537 869.95 1687)">
	<path id="path12916" class="st7" d="M-688.1,1388.7l0,0.9c0,0.6-0.5,1.1-1.1,1.2c-1.5,0-3.5,0.2-5.3,0.2l0-5.7c2,0,3.9-0.2,5.3-0.3
		c0.6,0,1.1,0.5,1.1,1.1l0,0.8 M-700.8,1386.9l0-0.9c0-0.6,0.5-1.1,1.1-1.1c1.5,0.2,3.3,0.3,5.3,0.3l0,5.7c-1.8,0-3.6,0-5.3-0.1
		c-0.6-0.2-1.1-1.2-1.1-1.8"/>
	<path id="path12918" class="st0" d="M-689.2,1388.5l0,0.6c0,0.4-0.4,0.8-0.9,0.9c-1.3,0-2.9,0.1-4.4,0.1l0-4.1
		c1.6,0,3.3-0.1,4.4-0.2c0.5,0,0.9,0.3,0.9,0.8l0,0.5 M-699.7,1387.2l0-0.6c0-0.4,0.4-0.8,0.9-0.8c1.3,0.1,2.8,0.2,4.4,0.2l0,4.1
		c-1.5,0-3,0-4.4-0.1c-0.5-0.1-0.9-0.9-0.9-1.3"/>
</g>
<g id="g12920" transform="matrix(-.95446 .55839 -.61416 -.86779 624.54 1881.6)">
	<path id="path12922" class="st7" d="M-573,1572.6l0,0.9c0,0.6-0.5,1.1-1.1,1.2c-1.5,0-3.5,0.2-5.3,0.2l0-5.7c2,0,3.9-0.2,5.3-0.3
		c0.6,0,1.1,0.5,1.1,1.1l0,0.8 M-585.7,1570.8l0-0.9c0-0.6,0.5-1.1,1.1-1.1c1.5,0.2,3.3,0.3,5.3,0.3l0,5.7c-1.8,0-3.6,0-5.3-0.1
		c-0.6-0.2-1.1-1.2-1.1-1.8"/>
	<path id="path12924" class="st0" d="M-574.1,1572.4l0,0.6c0,0.4-0.4,0.8-0.9,0.9c-1.3,0-2.9,0.1-4.4,0.1l0-4.1
		c1.6,0,3.3-0.1,4.4-0.2c0.5,0,0.9,0.3,0.9,0.8l0,0.5 M-584.6,1571.1l0-0.6c0-0.4,0.4-0.8,0.9-0.8c1.3,0.1,2.8,0.2,4.4,0.2l0,4.1
		c-1.5,0-3,0-4.4-0.1c-0.5-0.1-0.9-0.9-0.9-1.3"/>
</g>
<g id="g12926" transform="matrix(-1.0888 .29135 -.32045 -.98993 328.78 2005.5)">
	<path id="path12928" class="st7" d="M-410.8,1716.7l0,0.9c0,0.6-0.5,1.1-1.1,1.2c-1.5,0-3.5,0.2-5.3,0.2l0-5.7c2,0,3.9-0.2,5.3-0.3
		c0.6,0,1.1,0.5,1.1,1.1l0,0.8 M-423.5,1714.9l0-0.9c0-0.6,0.5-1.1,1.1-1.1c1.5,0.2,3.3,0.3,5.3,0.3l0,5.7c-1.8,0-3.6,0-5.3-0.2
		c-0.6-0.2-1.1-1.2-1.1-1.8"/>
	<path id="path12930" class="st0" d="M-411.9,1716.5l0,0.6c0,0.4-0.4,0.8-0.9,0.9c-1.3,0-2.9,0.1-4.4,0.1l0-4.1
		c1.6,0,3.3-0.1,4.4-0.2c0.5,0,0.9,0.3,0.9,0.8l0,0.5 M-422.4,1715.2l0-0.7c0-0.4,0.4-0.8,0.9-0.8c1.3,0.1,2.8,0.2,4.4,0.2l0,4.1
		c-1.5,0-3,0-4.4-0.1c-0.5-0.1-0.9-0.9-0.9-1.3"/>
</g>
<g id="g12932" transform="matrix(-1.135 .00072019 -.00079212 -1.0319 6.6183 2048.7)">
	<path id="path12934" class="st7" d="M-214.6,1809.3v0.9c0,0.6-0.5,1.1-1.1,1.2c-1.5,0-3.5,0.2-5.3,0.2l0-5.7c2,0,3.9-0.2,5.3-0.3
		c0.6,0,1.1,0.5,1.1,1.1v0.8 M-227.3,1807.4l0-0.9c0-0.6,0.5-1.1,1.1-1.1c1.5,0.2,3.3,0.3,5.3,0.3l0,5.7c-1.8,0-3.6,0-5.3-0.2
		c-0.6-0.2-1.1-1.2-1.1-1.8"/>
	<path id="path12936" class="st0" d="M-215.7,1809.1v0.7c0,0.4-0.4,0.8-0.9,0.9c-1.3,0-2.9,0.1-4.4,0.1l0-4.1c1.6,0,3.3-0.1,4.4-0.2
		c0.5,0,0.9,0.3,0.9,0.8v0.5 M-226.2,1807.8v-0.7c0-0.4,0.4-0.8,0.9-0.8c1.3,0.1,2.8,0.2,4.4,0.2l0,4.1c-1.5,0-3,0-4.4-0.1
		c-0.5-0.1-0.9-0.9-0.9-1.3"/>
</g>
<g id="g12938" transform="matrix(-1.0918 -.28208 .31025 -.99262 -313.06 2009.9)">
	<path id="path12940" class="st7" d="M-10.6,1843.9l0,0.9c0,0.6-0.5,1.1-1.1,1.2c-1.5,0-3.5,0.2-5.3,0.2l0-5.7c2,0,3.9-0.2,5.3-0.3
		c0.6,0,1.1,0.5,1.1,1.1l0,0.8 M-23.3,1842.1l0-0.9c0-0.6,0.5-1.1,1.1-1.1c1.5,0.2,3.3,0.3,5.3,0.3l0,5.7c-1.8,0-3.6,0-5.3-0.2
		c-0.6-0.2-1.1-1.2-1.1-1.8"/>
	<path id="path12942" class="st0" d="M-11.7,1843.7l0,0.6c0,0.4-0.4,0.8-0.9,0.9c-1.3,0-2.9,0.1-4.4,0.1l0-4.1
		c1.6,0,3.3-0.1,4.4-0.2c0.5,0,0.9,0.3,0.9,0.8l0,0.5 M-22.2,1842.4l0-0.6c0-0.4,0.4-0.8,0.9-0.8c1.3,0.1,2.8,0.2,4.4,0.2l0,4.1
		c-1.5,0-3,0-4.4-0.1c-0.5-0.1-0.9-0.9-0.9-1.3"/>
</g>
<g id="g12944" transform="matrix(-.96016 -.55025 .60521 -.87297 -610.8 1890)">
	<path id="path12946" class="st7" d="M205.3,1818.5l0,0.9c0,0.6-0.5,1.1-1.1,1.2c-1.5,0-3.5,0.1-5.3,0.1l0-5.7c2,0,3.9-0.1,5.3-0.3
		c0.6,0,1.1,0.5,1.1,1.1l0,0.8 M192.6,1816.7l0-0.9c0-0.6,0.5-1.1,1.1-1.1c1.5,0.2,3.3,0.3,5.3,0.3l0,5.7c-1.8,0-3.6,0-5.3-0.2
		c-0.6-0.2-1.1-1.2-1.1-1.8"/>
	<path id="path12948" class="st0" d="M204.2,1818.3l0,0.6c0,0.4-0.4,0.8-0.9,0.9c-1.3,0-2.9,0.1-4.4,0.1l0-4.1
		c1.6,0,3.3-0.1,4.4-0.2c0.5,0,0.9,0.3,0.9,0.8l0,0.5 M193.6,1817l0-0.6c0-0.4,0.4-0.8,0.9-0.8c1.3,0.1,2.8,0.2,4.4,0.2l0,4.1
		c-1.5,0-3,0-4.4-0.1c-0.5-0.1-0.9-0.9-0.9-1.3"/>
</g>
<g id="g12950" transform="matrix(-.75081 -.77386 .85115 -.68264 -859.34 1698.7)">
	<path id="path12952" class="st7" d="M405.2,1733.3l0,0.9c0,0.6-0.5,1.1-1.1,1.2c-1.5,0-3.5,0.1-5.3,0.1l0-5.7c2,0,3.9-0.1,5.3-0.3
		c0.6,0,1.1,0.5,1.1,1.1l0,0.8 M392.5,1731.5l0-0.9c0-0.6,0.5-1.1,1.1-1.1c1.5,0.2,3.3,0.3,5.3,0.3l0,5.7c-1.8,0-3.6,0-5.3-0.2
		c-0.6-0.2-1.1-1.2-1.1-1.8"/>
	<path id="path12954" class="st0" d="M404.1,1733.2l0,0.6c0,0.4-0.4,0.8-0.9,0.9c-1.3,0-2.9,0.1-4.4,0.1l0-4.1
		c1.6,0,3.3-0.1,4.4-0.2c0.5,0,0.9,0.3,0.9,0.8l0,0.5 M393.5,1731.9l0-0.6c0-0.4,0.4-0.8,0.9-0.8c1.3,0.1,2.8,0.2,4.4,0.2l0,4.1
		c-1.5,0-3,0-4.4-0.1c-0.5-0.1-0.9-0.9-0.9-1.3"/>
</g>
<g id="g12956" transform="matrix(-.48067 -.93481 1.0282 -.43702 -1038.6 1451.5)">
	<path id="path12958" class="st7" d="M573.1,1595.3l0,0.9c0,0.6-0.5,1.1-1.1,1.2c-1.5,0-3.5,0.2-5.3,0.1l0-5.7c2,0,3.9-0.1,5.3-0.3
		c0.6,0,1.1,0.5,1.1,1.1l0,0.8 M560.4,1593.5l0-0.9c0-0.6,0.5-1.1,1.1-1.1c1.5,0.2,3.3,0.3,5.3,0.3l0,5.7c-1.8,0-3.6,0-5.3-0.2
		c-0.6-0.2-1.1-1.2-1.1-1.8"/>
	<path id="path12960" class="st0" d="M572,1595.1l0,0.6c0,0.4-0.4,0.8-0.9,0.9c-1.3,0-2.9,0.1-4.4,0.1l0-4.1c1.6,0,3.3-0.1,4.4-0.2
		c0.5,0,0.9,0.3,0.9,0.8l0,0.5 M561.4,1593.8l0-0.6c0-0.4,0.4-0.8,0.9-0.8c1.3,0.1,2.8,0.2,4.4,0.2l0,4.1c-1.5,0-3,0-4.4-0.1
		c-0.5-0.1-0.9-0.9-0.9-1.3"/>
</g>
<g id="g12962" transform="matrix(-.17160 -1.0201 1.1219 -.15602 -1133.9 1168.4)">
	<path id="path12964" class="st7" d="M695.2,1415.6l0,0.9c0,0.6-0.5,1.1-1.1,1.2c-1.5,0-3.5,0.2-5.3,0.2l0-5.7c2,0,3.9-0.2,5.3-0.3
		c0.6,0,1.1,0.5,1.1,1.1l0,0.8 M682.5,1413.8l0-0.9c0-0.6,0.5-1.1,1.1-1.1c1.5,0.2,3.3,0.3,5.3,0.3l0,5.7c-1.8,0-3.6,0-5.3-0.2
		c-0.6-0.2-1.1-1.2-1.1-1.8"/>
	<path id="path12966" class="st0" d="M694.1,1415.4l0,0.6c0,0.4-0.4,0.8-0.9,0.9c-1.3,0-2.9,0.1-4.4,0.1l0-4.1
		c1.6,0,3.3-0.1,4.4-0.2c0.5,0,0.9,0.3,0.9,0.8l0,0.5 M683.5,1414.1l0-0.6c0-0.4,0.4-0.8,0.9-0.8c1.3,0.1,2.8,0.2,4.4,0.2l0,4.1
		c-1.5,0-3,0-4.4-0.1c-0.5-0.1-0.9-0.9-0.9-1.3"/>
</g>
<g id="g12968" transform="matrix(.15136 -1.0227 1.1248 .13762 -1137.7 872.37)">
	<path id="path12970" class="st7" d="M761.9,1208.8l0,0.9c0,0.6-0.5,1.1-1.1,1.2c-1.5,0-3.5,0.2-5.3,0.2l0-5.7c2,0,3.9-0.2,5.3-0.3
		c0.6,0,1.1,0.5,1.1,1.1l0,0.8 M749.2,1207l0-0.9c0-0.6,0.5-1.1,1.1-1.1c1.5,0.2,3.3,0.3,5.3,0.3l0,5.7c-1.8,0-3.6,0-5.3-0.2
		c-0.6-0.2-1.1-1.2-1.1-1.8"/>
	<path id="path12972" class="st0" d="M760.8,1208.6l0,0.6c0,0.4-0.4,0.8-0.9,0.9c-1.3,0-2.9,0.1-4.4,0.1l0-4.1
		c1.6,0,3.3-0.1,4.4-0.2c0.5,0,0.9,0.3,0.9,0.8l0,0.5 M750.2,1207.3l0-0.6c0-0.4,0.4-0.8,0.9-0.8c1.3,0.1,2.8,0.2,4.4,0.2l0,4.1
		c-1.5,0-3,0-4.4-0.1c-0.5-0.1-0.9-0.9-0.9-1.3"/>
</g>
<g id="g12974" transform="matrix(.46207 -.94253 1.0367 .42011 -1049.7 587.33)">
	<path id="path12976" class="st7" d="M767.5,991.5l0,0.9c0,0.6-0.5,1.1-1.1,1.2c-1.5,0-3.5,0.2-5.3,0.2l0-5.7c2,0,3.9-0.2,5.3-0.3
		c0.6,0,1.1,0.5,1.1,1.1l0,0.8 M754.8,989.7l0-0.9c0-0.6,0.5-1.1,1.1-1.1c1.5,0.2,3.3,0.3,5.3,0.3l0,5.7c-1.8,0-3.6,0-5.3-0.1
		c-0.6-0.2-1.1-1.2-1.1-1.8"/>
	<path id="path12978" class="st0" d="M766.4,991.4l0,0.6c0,0.4-0.4,0.8-0.9,0.9c-1.3,0-2.9,0.1-4.4,0.1l0-4.1c1.6,0,3.3-0.1,4.4-0.2
		c0.5,0,0.9,0.3,0.9,0.8l0,0.5 M755.9,990.1l0-0.6c0-0.4,0.4-0.8,0.9-0.8c1.3,0.1,2.8,0.2,4.4,0.2l0,4.1c-1.5,0-3,0-4.4-0.1
		c-0.5-0.1-0.9-0.9-0.9-1.3"/>
</g>
<g id="g12980" transform="matrix(.73536 -.78603 .86454 .66859 -876.89 336.39)">
	<path id="path12982" class="st7" d="M711.8,781.5l0,0.9c0,0.6-0.5,1.1-1.1,1.2c-1.5,0-3.5,0.2-5.3,0.2l0-5.7c2,0,3.9-0.2,5.3-0.3
		c0.6,0,1.1,0.5,1.1,1.1l0,0.8 M699.1,779.7l0-0.9c0-0.6,0.5-1.1,1.1-1.1c1.5,0.2,3.3,0.3,5.3,0.3l0,5.7c-1.8,0-3.6,0-5.3-0.1
		c-0.6-0.2-1.1-1.2-1.1-1.8"/>
	<path id="path12984" class="st0" d="M710.7,781.3l0,0.6c0,0.4-0.4,0.8-0.9,0.9c-1.3,0-2.9,0.1-4.4,0.1l0-4.1c1.6,0,3.3-0.1,4.4-0.2
		c0.5,0,0.9,0.3,0.9,0.8l0,0.5 M700.1,780l0-0.6c0-0.4,0.4-0.8,0.9-0.8c1.3,0.1,2.8,0.2,4.4,0.2l0,4.1c-1.5,0-3,0-4.4-0.1
		c-0.5-0.1-0.9-0.9-0.9-1.3"/>
</g>
<g id="g12986" transform="matrix(.94910 -.56588 .62240 .86292 -633.34 139.86)">
	<path id="path12988" class="st7" d="M599.1,595.7l0,0.9c0,0.6-0.5,1.1-1.1,1.2c-1.5,0-3.5,0.2-5.3,0.2l0-5.7c2,0,3.9-0.2,5.3-0.3
		c0.6,0,1.1,0.5,1.1,1.1l0,0.8 M586.4,593.9l0-0.9c0-0.6,0.5-1.1,1.1-1.1c1.5,0.2,3.3,0.3,5.3,0.3l0,5.7c-1.8,0-3.6,0-5.3-0.1
		c-0.6-0.2-1.1-1.2-1.1-1.8"/>
	<path id="path12990" class="st0" d="M598,595.5l0,0.6c0,0.4-0.4,0.8-0.9,0.9c-1.3,0-2.9,0.1-4.4,0.1l0-4.1c1.6,0,3.3-0.1,4.4-0.2
		c0.5,0,0.9,0.3,0.9,0.8l0,0.5 M587.5,594.2l0-0.6c0-0.4,0.4-0.8,0.9-0.8c1.3,0.1,2.8,0.2,4.4,0.2l0,4.1c-1.5,0-3,0-4.4-0.1
		c-0.5-0.1-0.9-0.9-0.9-1.3"/>
</g>
<g id="g12992" transform="matrix(1.086 -.29991 .32987 .98737 -338.77 13.655)">
	<path id="path12994" class="st7" d="M438.7,449.1l0,0.9c0,0.6-0.5,1.1-1.1,1.2c-1.5,0-3.5,0.2-5.3,0.2l0-5.7c2,0,3.9-0.2,5.3-0.3
		c0.6,0,1.1,0.5,1.1,1.1l0,0.8 M426,447.3l0-0.9c0-0.6,0.5-1.1,1.1-1.1c1.5,0.2,3.3,0.3,5.3,0.3l0,5.7c-1.8,0-3.6,0-5.3-0.1
		c-0.6-0.2-1.1-1.2-1.1-1.8"/>
	<path id="path12996" class="st0" d="M437.6,448.9l0,0.6c0,0.4-0.4,0.8-0.9,0.9c-1.3,0-2.9,0.1-4.4,0.1l0-4.1c1.6,0,3.3-0.1,4.4-0.2
		c0.5,0,0.9,0.3,0.9,0.8l0,0.5 M427.1,447.6l0-0.6c0-0.4,0.4-0.8,0.9-0.8c1.3,0.1,2.8,0.2,4.4,0.2l0,4.1c-1.5,0-3,0-4.4-0.1
		c-0.5-0.1-0.9-0.9-0.9-1.3"/>
</g>
<g id="g12998" transform="matrix(1.1349 -.0096543 .010618 1.0319 -17.033 -32.001)">
	<path id="path13000" class="st7" d="M243.5,353.7l0,0.9c0,0.6-0.5,1.1-1.1,1.2c-1.5,0-3.5,0.2-5.3,0.2v-5.7c2,0,3.9-0.2,5.3-0.3
		c0.6,0,1.1,0.5,1.1,1.1v0.8 M230.8,351.9l0-0.9c0-0.6,0.5-1.1,1.1-1.1c1.5,0.2,3.3,0.3,5.3,0.3l0,5.7c-1.8,0-3.6,0-5.3-0.2
		c-0.6-0.2-1.1-1.2-1.1-1.8"/>
	<path id="path13002" class="st0" d="M242.4,353.5l0,0.7c0,0.4-0.4,0.8-0.9,0.9c-1.3,0-2.9,0.1-4.4,0.1l0-4.1c1.6,0,3.3-0.1,4.4-0.2
		c0.5,0,0.9,0.3,0.9,0.8l0,0.5 M231.9,352.2l0-0.7c0-0.4,0.4-0.8,0.9-0.8c1.3,0.1,2.8,0.2,4.4,0.2l0,4.1c-1.5,0-3,0-4.4-0.1
		c-0.5-0.1-0.9-0.9-0.9-1.3"/>
</g>
</svg>
